<?xml version="1.0" encoding="UTF-8"?>
<svg width="128px" height="128px" viewBox="0 0 128 128" version="1.1" xmlns="http://www.w3.org/2000/svg" xmlns:xlink="http://www.w3.org/1999/xlink">
    <!-- Generator: Sketch 63.1 (92452) - https://sketch.com -->
    <title>icon</title>
    <desc>Created with Sketch.</desc>
    <g id="icon" stroke="none" stroke-width="1" fill="none" fill-rule="evenodd">
        <rect fill="#FFFFFF" x="0" y="0" width="128" height="128"></rect>
        <g id="rainbow-copy-2" transform="translate(68.000000, -14.000000)" fill-rule="nonzero">
            <path d="M107,0 C55.6375178,0 14,41.8090569 14,93.3831386 L14,140 C61.0282393,120.875134 44.4333196,127.587514 73.5199991,115.757738 L73.5199991,93.3831386 C73.5199991,74.8164693 88.5095057,59.7652097 107,59.7652097 C125.490492,59.7652097 140.479998,74.8164693 140.479998,93.3831386 L140.479998,107.017076 C151.524678,106.856457 183.881238,106.434366 200,106.232658 L200,93.3831386 C200.00592,68.6145684 190.209635,44.8587473 172.767468,27.3447229 C155.325302,9.83069863 131.666947,-0.00594390611 107,0 Z" id="Shape" fill="#E64C3C"></path>
            <path d="M154.095482,107.022598 L141.075348,107.209348 L141.075348,93.5765509 C141.075348,75.0114345 126.042736,59.9614337 107.499071,59.9614337 C88.9554055,59.9614337 73.9227942,75.0114345 73.9227942,93.5765509 L73.9227942,115.949279 L59,122 L59,93.5765509 C58.9919331,74.5913673 70.0368721,57.3429445 87.2721976,49.4250426 C104.507523,41.5071403 124.771314,44.3723439 139.14227,56.7592236 C153.513227,69.146103 159.354914,88.7822138 154.095482,107.022598 Z" id="Shape" fill="#955BA5"></path>
            <path d="M169.615852,106.731035 L154.151992,106.917933 C159.417817,88.6631807 153.56903,69.0116022 139.180605,56.6149654 C124.792181,44.2183284 104.50376,41.3508678 87.2474855,49.2750072 C69.9912108,57.1991462 58.9328469,74.4611558 58.940928,93.4612943 L58.940928,121.907133 L44,128 L44,93.4612943 C44.0322466,69.1796573 57.8890269,47.0391011 79.7052438,36.4109594 C101.521461,25.7828177 127.482784,28.5253062 146.600682,43.4776241 C165.71858,58.4299423 174.650493,82.9778384 169.615852,106.731035 L169.615852,106.731035 Z" id="Shape" fill="#3B97D3"></path>
            <path d="M186,93.4369111 L186,106.472379 L169.664524,106.696484 C174.703024,82.9614878 165.764264,58.4324008 146.631711,43.4915394 C127.499159,28.5506782 101.517934,25.810291 79.6849944,36.4302892 C57.8520545,47.0502875 43.9846523,69.1738791 43.952381,93.4369111 L43.952381,127.949152 L29,134 L29,93.4369111 C29,50.1174012 64.1456477,15 107.5,15 C150.854352,15 186,50.1174012 186,93.4369111 Z" id="Shape" fill="#F0C419"></path>
            <path d="M62.1087937,112 C52.9831362,112.099056 44.7641095,117.587592 41.1121142,126.02125 C38.8550247,125.112812 36.4467695,124.646983 34.0165307,124.64875 C22.9090909,124.894671 14.0667032,134.108763 14.1875729,145.31125 C5.61585639,148.317093 -0.0938506024,156.508046 0.003843608,165.65875 C-0.214152167,177.199854 8.86801404,186.743787 20.3125342,187 L98.6986503,187 C109.526192,186.517518 118.256552,177.891405 118.955254,166.985275 C119.653956,156.079145 112.096835,146.392025 101.420855,144.50875 C99.0027868,137.409014 92.445037,132.587686 85.0020915,132.4375 C83.3942014,120.87462 73.6859999,112.207831 62.1087937,112 Z" id="Shape" fill="#ECF0F1"></path>
        </g>
        <path d="M12.4409961,38 L15.7754199,22.0339941 L21.3197168,22.0339941 L21.9866016,18.830332 L6.88362305,18.830332 L6.21673828,22.0339941 L11.8394922,22.0339941 L8.49199219,38 L12.4409961,38 Z M24.4710742,38 L26.2625098,29.4351074 L33.6766992,29.4351074 L31.8852637,38 L35.8342676,38 L39.8355762,18.830332 L35.8996484,18.830332 L34.343584,26.2314453 L26.9293945,26.2314453 L28.4723828,18.830332 L24.5364551,18.830332 L20.5220703,38 L24.4710742,38 Z M42.4508105,38 L44.7522168,33.7633203 L52.3494727,33.7633203 L52.9902051,38 L56.7299902,38 L53.6178613,18.830332 L49.2373437,18.830332 L38.3971973,38 L42.4508105,38 Z M51.8656543,30.5727344 L46.1252148,30.5727344 L50.7541797,22.857793 L51.8656543,30.5727344 Z M62.9150195,38 L65.6087109,25.1199707 L70.786875,38 L74.4612793,38 L78.4625879,18.830332 L74.8012598,18.830332 L72.1206445,31.6580566 L66.9294043,18.830332 L63.2419238,18.830332 L59.2406152,38 L62.9150195,38 Z M82.3985156,38 L83.6276758,32.1287988 L87.3543848,28.872832 L92.087959,38 L96.5469336,38 L90.2311426,26.3491309 L98.8352637,18.830332 L93.5524902,18.830332 L84.6868457,26.9767871 L86.386748,18.830332 L82.4377441,18.830332 L78.4364355,38 L82.3985156,38 Z M13.7355371,68 L15.2262207,60.8996387 L24.0134082,48.830332 L19.436748,48.830332 L16.7299805,52.7139551 L14.9123926,55.2507324 C14.4852376,55.8871061 14.1103874,56.48861 13.7878418,57.0552441 C13.5960579,56.4798926 13.216849,55.5427669 12.6502148,54.2438672 L12.6502148,54.2438672 L10.2703516,48.830332 L6.07290039,48.830332 L11.3556738,60.5335059 L9.79960937,68 L13.7355371,68 Z M31.0353125,68.3399805 C33.0926302,68.3399805 34.9363704,67.8300098 36.5665332,66.8100684 C38.196696,65.790127 39.4868783,64.3343132 40.4370801,62.442627 C41.3872819,60.5509408 41.8623828,58.5938737 41.8623828,56.5714258 C41.8623828,54.1392578 41.1322965,52.1865495 39.672124,50.7133008 C38.2119515,49.2400521 36.2962923,48.5034277 33.9251465,48.5034277 C32.1555046,48.5034277 30.5776465,48.8630225 29.1915723,49.5822119 C27.805498,50.3014014 26.6569743,51.2799349 25.746001,52.5178125 C24.8350277,53.7556901 24.1572461,55.2158626 23.7126563,56.8983301 C23.3726758,58.1536426 23.2026855,59.3479329 23.2026855,60.4812012 C23.2026855,61.7016439 23.4554915,62.9111898 23.9611035,64.1098389 C24.4667155,65.308488 25.3253841,66.3131738 26.5371094,67.1238965 C27.7488346,67.9346191 29.2482357,68.3399805 31.0353125,68.3399805 Z M31.4668262,65.0447852 C30.159209,65.0447852 29.1043978,64.6001953 28.3023926,63.7110156 C27.5003874,62.8218359 27.0993848,61.7190788 27.0993848,60.4027441 C27.0993848,58.258252 27.703068,56.2881087 28.9104346,54.4923145 C30.1178011,52.6965202 31.6847624,51.798623 33.6113184,51.798623 C34.8666309,51.798623 35.8996484,52.2279574 36.7103711,53.086626 C37.5210937,53.9452946 37.9264551,55.1286882 37.9264551,56.6368066 C37.9264551,57.9880111 37.6060889,59.3762646 36.9653564,60.8015674 C36.324624,62.2268701 35.5139014,63.2903988 34.5331885,63.9921533 C33.5524756,64.6939079 32.5303548,65.0447852 31.4668262,65.0447852 Z M51.0418555,68.3269043 C52.9073893,68.3269043 54.4503776,67.9607715 55.6708203,67.2285059 C56.891263,66.4962402 57.8022363,65.5460384 58.4037402,64.3779004 C59.0052441,63.2097624 59.5370085,61.5229362 59.9990332,59.3174219 L59.9990332,59.3174219 L62.1827539,48.830332 L58.2468262,48.830332 L56.0500293,59.3043457 C55.7013314,60.9955306 55.3569922,62.1941797 55.0170117,62.900293 C54.6770313,63.6064062 54.1975716,64.1381706 53.5786328,64.4955859 C52.959694,64.8530013 52.1751237,65.031709 51.2249219,65.031709 C50.1701107,65.031709 49.3659261,64.7854411 48.8123682,64.2929053 C48.2588102,63.8003695 47.9820313,63.1748926 47.9820313,62.4164746 C47.9820313,62.2246908 47.9994661,62.0198307 48.0343359,61.8018945 L48.0343359,61.8018945 L48.570459,59.2389648 L50.7411035,48.830332 L46.8051758,48.830332 L44.6868359,58.9251367 C44.4165951,60.2327539 44.2640397,61.0260417 44.2291699,61.305 C44.1681478,61.7234375 44.1376367,62.1113639 44.1376367,62.4687793 C44.1376367,64.1861165 44.7304232,65.591805 45.9159961,66.6858447 C47.101569,67.7798844 48.8101888,68.3269043 51.0418555,68.3269043 Z" id="THANKYOU" fill="#005EB8" fill-rule="nonzero"></path>
        <path d="M3,115 L85,115 L85,80 L3,80 L3,115 Z M35,84 L29.4609948,112 L20.7677547,112 L15.3017061,92.6260519 L15.2287495,92.6260519 L11.5923168,112 L5,112 L10.5846031,84 L19.3063419,84 L24.6640955,103.4169 L24.738192,103.4169 L28.4076832,84 L35,84 Z M61,84 L55.5117236,112 L48.4385849,112 L50.7847799,100.007714 L42.4193336,100.007714 L40.0731386,112 L33,112 L38.4871246,84 L45.5614151,84 L43.4824352,94.7123072 L51.8444262,94.7123072 L53.9268614,84 L61,84 Z M82,84.2876027 L80.2521637,90.0621134 C78.8571991,89.3579358 76.9571204,88.7363783 74.2828482,88.7363783 C71.4162077,88.7363783 69.0877262,89.1888823 69.0877262,91.5187696 C69.0877262,95.6294382 79.5959874,94.0952462 79.5959874,102.903822 C79.5959874,110.920515 72.6542093,113 66.3733281,113 C63.5822187,113 60.3638867,112.290738 58,111.500127 L59.7065303,105.59978 C61.1380803,106.598848 64.0106216,107.264893 66.3733281,107.264893 C68.6250983,107.264893 72.1490952,106.806033 72.1490952,103.815185 C72.1490952,99.1592238 61.6420142,100.905686 61.6420142,92.7250233 C61.6420142,85.2434539 67.7694729,83 73.702203,83 C77.0385523,83 80.1766326,83.3762393 82,84.2876027 L82,84.2876027 Z" id="NHS-logo-for-A4-10mm---RGB-Blue-Copy-2" fill="#005EB8"></path>
    </g>
</svg>