<?xml version="1.0" encoding="UTF-8"?>
<svg width="960px" height="77px" viewBox="0 0 960 77" version="1.1" xmlns="http://www.w3.org/2000/svg" xmlns:xlink="http://www.w3.org/1999/xlink">
    <!-- Generator: Sketch 63.1 (92452) - https://sketch.com -->
    <title>thankyounhs desktop</title>
    <desc>Created with Sketch.</desc>
    <g id="thankyounhs-desktop" stroke="none" stroke-width="1" fill="none" fill-rule="evenodd">
        <rect fill="#FFFFFF" x="0" y="0" width="960" height="77"></rect>
        <path d="M248.88324,67 L259.868286,14.4010132 L278.133618,14.4010132 L280.330627,3.84675293 L230.574829,3.84675293 L228.37782,14.4010132 L246.901624,14.4010132 L235.873499,67 L248.88324,67 Z M288.515564,67 L294.417334,38.7835083 L318.842908,38.7835083 L312.941138,67 L325.950879,67 L339.132935,3.84675293 L326.166272,3.84675293 L321.039917,28.229248 L296.614343,28.229248 L301.69762,3.84675293 L288.730957,3.84675293 L275.505823,67 L288.515564,67 Z M347.748657,67 L355.330493,53.0425293 L380.359167,53.0425293 L382.47002,67 L394.790503,67 L384.537793,3.84675293 L370.106458,3.84675293 L334.394287,67 L347.748657,67 Z M378.765259,42.5313477 L359.853748,42.5313477 L375.103577,17.1149658 L378.765259,42.5313477 Z M415.166687,67 L424.040881,24.5675659 L441.100012,67 L453.205103,67 L466.387158,3.84675293 L454.325146,3.84675293 L445.494031,46.1068726 L428.391821,3.84675293 L416.243652,3.84675293 L403.061597,67 L415.166687,67 Z M479.353821,67 L483.40321,47.6577026 L495.680615,36.9311279 L511.275073,67 L525.96488,67 L505.15791,28.6169556 L533.503638,3.84675293 L516.099878,3.84675293 L486.892578,30.684729 L492.492798,3.84675293 L479.483057,3.84675293 L466.301001,67 L479.353821,67 Z M586.404175,67 L591.315137,43.608313 L620.263965,3.84675293 L605.18645,3.84675293 L596.269177,16.6411011 L590.28125,24.9983521 C588.874015,27.0948446 587.639095,29.0764608 586.576489,30.9432007 C585.94467,29.0477417 584.69539,25.9604411 582.82865,21.6812988 L582.82865,21.6812988 L574.988342,3.84675293 L561.160107,3.84675293 L578.563867,42.4021118 L573.437512,67 L586.404175,67 Z M643.39718,68.1200439 C650.174882,68.1200439 656.248966,66.439978 661.619434,63.0798462 C666.989901,59.7197144 671.240324,54.9236287 674.370703,48.6915894 C677.501082,42.45955 679.066272,36.0121175 679.066272,29.349292 C679.066272,21.3366699 676.661049,14.903597 671.850604,10.0500732 C667.040159,5.19654948 660.729142,2.7697876 652.917554,2.7697876 C647.087581,2.7697876 641.889429,3.95444946 637.323096,6.32377319 C632.756763,8.69309692 628.973024,11.9168132 625.971881,15.9949219 C622.970738,20.0730306 620.73783,24.8834757 619.273157,30.4262573 C618.153113,34.5618042 617.593091,38.4963175 617.593091,42.2297974 C617.593091,46.2504679 618.425944,50.2352397 620.09165,54.1841125 C621.757357,58.1329854 624.586186,61.4428589 628.578137,64.1137329 C632.570089,66.7846069 637.50977,68.1200439 643.39718,68.1200439 Z M644.818774,57.2642334 C640.510913,57.2642334 637.035905,55.7995605 634.39375,52.8702148 C631.751595,49.9408691 630.430518,46.3079061 630.430518,41.9713257 C630.430518,34.9064331 632.419314,28.415922 636.396906,22.4997925 C640.374497,16.5836629 645.536751,13.6255981 651.883667,13.6255981 C656.019214,13.6255981 659.422424,15.0400126 662.093298,17.8688416 C664.764172,20.6976705 666.099609,24.596285 666.099609,29.5646851 C666.099609,34.0161418 665.044183,38.5896545 662.933331,43.2852234 C660.822479,47.9807922 658.151605,51.4845194 654.920709,53.796405 C651.689813,56.1082906 648.322502,57.2642334 644.818774,57.2642334 Z M709.307458,68.0769653 C715.453341,68.0769653 720.536617,66.8707642 724.557288,64.4583618 C728.577958,62.0459595 731.579102,58.9155802 733.560718,55.0672241 C735.542334,51.218868 737.294198,45.6617269 738.816309,38.3958008 L738.816309,38.3958008 L746.010437,3.84675293 L733.043774,3.84675293 L725.806567,38.3527222 C724.657804,43.9242228 723.523401,47.8730957 722.403357,50.1993408 C721.283313,52.5255859 719.703764,54.2774495 717.664709,55.4549316 C715.625655,56.6324137 713.040938,57.2211548 709.910559,57.2211548 C706.435551,57.2211548 703.786216,56.4098409 701.962555,54.7872131 C700.138894,53.1645854 699.227063,51.1039917 699.227063,48.6054321 C699.227063,47.9736125 699.284501,47.2987142 699.399377,46.5807373 L699.399377,46.5807373 L701.165601,38.1373291 L708.31665,3.84675293 L695.349988,3.84675293 L688.371252,37.1034424 C687.480961,41.4113037 686.978377,44.0247396 686.863501,44.94375 C686.662467,46.3222656 686.561951,47.6002645 686.561951,48.7777466 C686.561951,54.4354045 688.514848,59.0663554 692.420642,62.6705994 C696.326436,66.2748433 701.955375,68.0769653 709.307458,68.0769653 Z" id="THANKYOU" fill="#005EB8" fill-rule="nonzero" opacity="0.0735212054"></path>
        <g id="rainbow-copy" transform="translate(757.000000, -27.000000)" fill-rule="nonzero">
            <path d="M107,0 C55.6375178,0 14,41.8090569 14,93.3831386 L14,140 C61.0282393,120.875134 44.4333196,127.587514 73.5199991,115.757738 L73.5199991,93.3831386 C73.5199991,74.8164693 88.5095057,59.7652097 107,59.7652097 C125.490492,59.7652097 140.479998,74.8164693 140.479998,93.3831386 L140.479998,107.017076 C151.524678,106.856457 183.881238,106.434366 200,106.232658 L200,93.3831386 C200.00592,68.6145684 190.209635,44.8587473 172.767468,27.3447229 C155.325302,9.83069863 131.666947,-0.00594390611 107,0 Z" id="Shape" fill="#E64C3C"></path>
            <path d="M154.095482,107.022598 L141.075348,107.209348 L141.075348,93.5765509 C141.075348,75.0114345 126.042736,59.9614337 107.499071,59.9614337 C88.9554055,59.9614337 73.9227942,75.0114345 73.9227942,93.5765509 L73.9227942,115.949279 L59,122 L59,93.5765509 C58.9919331,74.5913673 70.0368721,57.3429445 87.2721976,49.4250426 C104.507523,41.5071403 124.771314,44.3723439 139.14227,56.7592236 C153.513227,69.146103 159.354914,88.7822138 154.095482,107.022598 Z" id="Shape" fill="#955BA5"></path>
            <path d="M169.615852,106.731035 L154.151992,106.917933 C159.417817,88.6631807 153.56903,69.0116022 139.180605,56.6149654 C124.792181,44.2183284 104.50376,41.3508678 87.2474855,49.2750072 C69.9912108,57.1991462 58.9328469,74.4611558 58.940928,93.4612943 L58.940928,121.907133 L44,128 L44,93.4612943 C44.0322466,69.1796573 57.8890269,47.0391011 79.7052438,36.4109594 C101.521461,25.7828177 127.482784,28.5253062 146.600682,43.4776241 C165.71858,58.4299423 174.650493,82.9778384 169.615852,106.731035 L169.615852,106.731035 Z" id="Shape" fill="#3B97D3"></path>
            <path d="M186,93.4369111 L186,106.472379 L169.664524,106.696484 C174.703024,82.9614878 165.764264,58.4324008 146.631711,43.4915394 C127.499159,28.5506782 101.517934,25.810291 79.6849944,36.4302892 C57.8520545,47.0502875 43.9846523,69.1738791 43.952381,93.4369111 L43.952381,127.949152 L29,134 L29,93.4369111 C29,50.1174012 64.1456477,15 107.5,15 C150.854352,15 186,50.1174012 186,93.4369111 Z" id="Shape" fill="#F0C419"></path>
            <path d="M165.384347,89 C172.779535,89.0507836 179.46564,93.4337236 182.494559,100.21625 C184.337909,99.490544 186.300373,99.1191136 188.280026,99.12125 C197.259144,99.2506464 204.462808,106.619721 204.435318,115.6475 C211.38206,117.994102 216.045376,124.558994 215.998792,131.92625 C216.108717,141.23186 208.704217,148.870369 199.448103,149 L135.565505,149 C126.777339,148.767164 119.612882,141.841551 119.037028,133.022539 C118.461174,124.203527 124.663589,116.395786 133.346064,115.01 C135.361994,109.29542 140.699341,105.44309 146.729853,105.35 C148.113508,96.0357912 156.017305,89.1083945 165.384347,89 L165.384347,89 Z" id="Shape" fill="#ECF0F1"></path>
        </g>
        <g id="rainbow-copy-2" transform="translate(0.000000, -27.000000)" fill-rule="nonzero">
            <path d="M107,0 C55.6375178,0 14,41.8090569 14,93.3831386 L14,140 C61.0282393,120.875134 44.4333196,127.587514 73.5199991,115.757738 L73.5199991,93.3831386 C73.5199991,74.8164693 88.5095057,59.7652097 107,59.7652097 C125.490492,59.7652097 140.479998,74.8164693 140.479998,93.3831386 L140.479998,107.017076 C151.524678,106.856457 183.881238,106.434366 200,106.232658 L200,93.3831386 C200.00592,68.6145684 190.209635,44.8587473 172.767468,27.3447229 C155.325302,9.83069863 131.666947,-0.00594390611 107,0 Z" id="Shape" fill="#E64C3C"></path>
            <path d="M154.095482,107.022598 L141.075348,107.209348 L141.075348,93.5765509 C141.075348,75.0114345 126.042736,59.9614337 107.499071,59.9614337 C88.9554055,59.9614337 73.9227942,75.0114345 73.9227942,93.5765509 L73.9227942,115.949279 L59,122 L59,93.5765509 C58.9919331,74.5913673 70.0368721,57.3429445 87.2721976,49.4250426 C104.507523,41.5071403 124.771314,44.3723439 139.14227,56.7592236 C153.513227,69.146103 159.354914,88.7822138 154.095482,107.022598 Z" id="Shape" fill="#955BA5"></path>
            <path d="M169.615852,106.731035 L154.151992,106.917933 C159.417817,88.6631807 153.56903,69.0116022 139.180605,56.6149654 C124.792181,44.2183284 104.50376,41.3508678 87.2474855,49.2750072 C69.9912108,57.1991462 58.9328469,74.4611558 58.940928,93.4612943 L58.940928,121.907133 L44,128 L44,93.4612943 C44.0322466,69.1796573 57.8890269,47.0391011 79.7052438,36.4109594 C101.521461,25.7828177 127.482784,28.5253062 146.600682,43.4776241 C165.71858,58.4299423 174.650493,82.9778384 169.615852,106.731035 L169.615852,106.731035 Z" id="Shape" fill="#3B97D3"></path>
            <path d="M186,93.4369111 L186,106.472379 L169.664524,106.696484 C174.703024,82.9614878 165.764264,58.4324008 146.631711,43.4915394 C127.499159,28.5506782 101.517934,25.810291 79.6849944,36.4302892 C57.8520545,47.0502875 43.9846523,69.1738791 43.952381,93.4369111 L43.952381,127.949152 L29,134 L29,93.4369111 C29,50.1174012 64.1456477,15 107.5,15 C150.854352,15 186,50.1174012 186,93.4369111 Z" id="Shape" fill="#F0C419"></path>
            <path d="M165.384347,89 C172.779535,89.0507836 179.46564,93.4337236 182.494559,100.21625 C184.337909,99.490544 186.300373,99.1191136 188.280026,99.12125 C197.259144,99.2506464 204.462808,106.619721 204.435318,115.6475 C211.38206,117.994102 216.045376,124.558994 215.998792,131.92625 C216.108717,141.23186 208.704217,148.870369 199.448103,149 L135.565505,149 C126.777339,148.767164 119.612882,141.841551 119.037028,133.022539 C118.461174,124.203527 124.663589,116.395786 133.346064,115.01 C135.361994,109.29542 140.699341,105.44309 146.729853,105.35 C148.113508,96.0357912 156.017305,89.1083945 165.384347,89 L165.384347,89 Z" id="Shape" fill="#ECF0F1"></path>
        </g>
        <path d="M366.572711,24 L369.589008,9.55726318 L374.60434,9.55726318 L375.207599,6.65925293 L361.545551,6.65925293 L360.942291,9.55726318 L366.028595,9.55726318 L363.00047,24 L366.572711,24 Z M377.455035,24 L379.075555,16.2522583 L385.782379,16.2522583 L384.161859,24 L387.7341,24 L391.353656,6.65925293 L387.793243,6.65925293 L386.385638,13.354248 L379.678815,13.354248 L381.074591,6.65925293 L377.514178,6.65925293 L373.882794,24 L377.455035,24 Z M393.719379,24 L395.801215,20.1675293 L402.673639,20.1675293 L403.253241,24 L406.636224,24 L403.821014,6.65925293 L399.858429,6.65925293 L390.052509,24 L393.719379,24 Z M402.23598,17.2813477 L397.043219,17.2813477 L401.230548,10.3024658 L402.23598,17.2813477 Z M412.231158,24 L414.667853,12.3488159 L419.351984,24 L422.675824,24 L426.29538,6.65925293 L422.983368,6.65925293 L420.558502,18.2631226 L415.862543,6.65925293 L412.526874,6.65925293 L408.907318,24 L412.231158,24 Z M429.855792,24 L430.967682,18.6889526 L434.338837,15.7436279 L438.620795,24 L442.654352,24 L436.941132,13.4607056 L444.724359,6.65925293 L439.945599,6.65925293 L431.9258,14.028479 L433.463519,6.65925293 L429.891278,6.65925293 L426.271722,24 L429.855792,24 Z M459.249896,24 L460.598358,17.577063 L468.547186,6.65925293 L464.407172,6.65925293 L461.958649,10.1723511 L460.314471,12.4671021 C459.92807,13.0427612 459.588983,13.5868774 459.297211,14.0994507 C459.123724,13.5789917 458.780695,12.7312744 458.268121,11.5562988 L458.268121,11.5562988 L456.115314,6.65925293 L452.318329,6.65925293 L457.097089,17.2458618 L455.689484,24 L459.249896,24 Z M474.899152,24.3075439 C476.760187,24.3075439 478.428021,23.846228 479.902655,22.9235962 C481.377289,22.0009644 482.544379,20.6840454 483.403925,18.9728394 C484.26347,17.2616333 484.693243,15.4912842 484.693243,13.661792 C484.693243,11.4616699 484.032812,9.69526367 482.711951,8.36257324 C481.391089,7.02988281 479.658197,6.3635376 477.513275,6.3635376 C475.912469,6.3635376 474.48515,6.68882446 473.231317,7.33939819 C471.977484,7.98997192 470.938538,8.87514648 470.114478,9.99492187 C469.290417,11.1146973 468.677301,12.4355591 468.275128,13.9575073 C467.967584,15.0930542 467.813812,16.1734009 467.813812,17.1985474 C467.813812,18.3025513 468.042499,19.396698 468.499872,20.4809875 C468.957245,21.5652771 469.73399,22.4741089 470.830109,23.2074829 C471.926227,23.9408569 473.282574,24.3075439 474.899152,24.3075439 Z M475.289496,21.3267334 C474.106635,21.3267334 473.15246,20.9245605 472.426971,20.1202148 C471.701483,19.3158691 471.338739,18.3183228 471.338739,17.1275757 C471.338739,15.1876831 471.884827,13.4055054 472.977002,11.7810425 C474.069177,10.1565796 475.486639,9.34434814 477.229388,9.34434814 C478.364935,9.34434814 479.299396,9.73272095 480.03277,10.5094666 C480.766144,11.2862122 481.132831,12.3567017 481.132831,13.7209351 C481.132831,14.9432251 480.84303,16.1990295 480.263428,17.4883484 C479.683826,18.7776672 478.950452,19.7397278 478.063306,20.37453 C477.17616,21.0093323 476.251556,21.3267334 475.289496,21.3267334 Z M492.99693,24.2957153 C494.684479,24.2957153 496.080255,23.9645142 497.184259,23.3021118 C498.288263,22.6397095 499.112323,21.7801636 499.656439,20.7234741 C500.200555,19.6667847 500.681586,18.1408936 501.09953,16.1458008 L501.09953,16.1458008 L503.074908,6.65925293 L499.514496,6.65925293 L497.527289,16.1339722 C497.211859,17.6638062 496.900372,18.7480957 496.592828,19.3868408 C496.285284,20.0255859 495.851569,20.5066162 495.291681,20.8299316 C494.731793,21.1532471 494.022076,21.3149048 493.162531,21.3149048 C492.208356,21.3149048 491.480896,21.0921326 490.980151,20.6465881 C490.479407,20.2010437 490.229034,19.6352417 490.229034,18.9491821 C490.229034,18.7756958 490.244806,18.5903809 490.276349,18.3932373 L490.276349,18.3932373 L490.761322,16.0748291 L492.724872,6.65925293 L489.164459,6.65925293 L487.248224,15.7909424 C487.003766,16.9738037 486.865765,17.6914062 486.834222,17.94375 C486.779022,18.3222656 486.751422,18.6731812 486.751422,18.9964966 C486.751422,20.5499878 487.287653,21.8215637 488.360114,22.8112244 C489.432574,23.800885 490.97818,24.2957153 492.99693,24.2957153 Z M517.30473,24 L520.321027,9.55726318 L525.336359,9.55726318 L525.939618,6.65925293 L512.27757,6.65925293 L511.67431,9.55726318 L516.760614,9.55726318 L513.732489,24 L517.30473,24 Z M532.764728,24.3075439 C534.625763,24.3075439 536.293597,23.846228 537.768231,22.9235962 C539.242865,22.0009644 540.409955,20.6840454 541.269501,18.9728394 C542.129047,17.2616333 542.55882,15.4912842 542.55882,13.661792 C542.55882,11.4616699 541.898389,9.69526367 540.577527,8.36257324 C539.256665,7.02988281 537.523773,6.3635376 535.378851,6.3635376 C533.778046,6.3635376 532.350726,6.68882446 531.096893,7.33939819 C529.84306,7.98997192 528.804114,8.87514648 527.980054,9.99492187 C527.155994,11.1146973 526.542877,12.4355591 526.140704,13.9575073 C525.83316,15.0930542 525.679388,16.1734009 525.679388,17.1985474 C525.679388,18.3025513 525.908075,19.396698 526.365448,20.4809875 C526.822821,21.5652771 527.599567,22.4741089 528.695685,23.2074829 C529.791803,23.9408569 531.148151,24.3075439 532.764728,24.3075439 Z M533.155072,21.3267334 C531.972211,21.3267334 531.018036,20.9245605 530.292548,20.1202148 C529.567059,19.3158691 529.204315,18.3183228 529.204315,17.1275757 C529.204315,15.1876831 529.750403,13.4055054 530.842578,11.7810425 C531.934753,10.1565796 533.352216,9.34434814 535.094965,9.34434814 C536.230511,9.34434814 537.164972,9.73272095 537.898346,10.5094666 C538.63172,11.2862122 538.998407,12.3567017 538.998407,13.7209351 C538.998407,14.9432251 538.708606,16.1990295 538.129004,17.4883484 C537.549402,18.7776672 536.816028,19.7397278 535.928882,20.37453 C535.041736,21.0093323 534.117133,21.3267334 533.155072,21.3267334 Z M558.33819,24.3075439 C560.199225,24.3075439 561.867059,23.846228 563.341693,22.9235962 C564.816327,22.0009644 565.983417,20.6840454 566.842963,18.9728394 C567.702509,17.2616333 568.132281,15.4912842 568.132281,13.661792 C568.132281,11.4616699 567.471851,9.69526367 566.150989,8.36257324 C564.830127,7.02988281 563.097235,6.3635376 560.952313,6.3635376 C559.351508,6.3635376 557.924188,6.68882446 556.670355,7.33939819 C555.416522,7.98997192 554.377576,8.87514648 553.553516,9.99492187 C552.729456,11.1146973 552.116339,12.4355591 551.714166,13.9575073 C551.406622,15.0930542 551.25285,16.1734009 551.25285,17.1985474 C551.25285,18.3025513 551.481537,19.396698 551.93891,20.4809875 C552.396283,21.5652771 553.173029,22.4741089 554.269147,23.2074829 C555.365265,23.9408569 556.721613,24.3075439 558.33819,24.3075439 Z M558.728534,21.3267334 C557.545673,21.3267334 556.591498,20.9245605 555.86601,20.1202148 C555.140521,19.3158691 554.777777,18.3183228 554.777777,17.1275757 C554.777777,15.1876831 555.323865,13.4055054 556.41604,11.7810425 C557.508215,10.1565796 558.925677,9.34434814 560.668427,9.34434814 C561.803973,9.34434814 562.738434,9.73272095 563.471808,10.5094666 C564.205182,11.2862122 564.571869,12.3567017 564.571869,13.7209351 C564.571869,14.9432251 564.282068,16.1990295 563.702466,17.4883484 C563.122864,18.7776672 562.38949,19.7397278 561.502344,20.37453 C560.615198,21.0093323 559.690594,21.3267334 558.728534,21.3267334 Z M576.435968,24.2957153 C578.123517,24.2957153 579.519293,23.9645142 580.623297,23.3021118 C581.727301,22.6397095 582.551361,21.7801636 583.095477,20.7234741 C583.639594,19.6667847 584.120624,18.1408936 584.538568,16.1458008 L584.538568,16.1458008 L586.513947,6.65925293 L582.953534,6.65925293 L580.966327,16.1339722 C580.650897,17.6638062 580.33941,18.7480957 580.031866,19.3868408 C579.724323,20.0255859 579.290607,20.5066162 578.730719,20.8299316 C578.170831,21.1532471 577.461115,21.3149048 576.601569,21.3149048 C575.647394,21.3149048 574.919934,21.0921326 574.419189,20.6465881 C573.918445,20.2010437 573.668073,19.6352417 573.668073,18.9491821 C573.668073,18.7756958 573.683844,18.5903809 573.715387,18.3932373 L573.715387,18.3932373 L574.20036,16.0748291 L576.16391,6.65925293 L572.603497,6.65925293 L570.687262,15.7909424 C570.442804,16.9738037 570.304803,17.6914062 570.27326,17.94375 C570.21806,18.3222656 570.19046,18.6731812 570.19046,18.9964966 C570.19046,20.5499878 570.726691,21.8215637 571.799152,22.8112244 C572.871613,23.800885 574.417218,24.2957153 576.435968,24.2957153 Z M590.109845,24 L591.612079,16.8200317 L593.066998,16.8200317 C593.910773,16.8200317 594.502203,16.934375 594.84129,17.1630615 C595.393292,17.5494629 595.913751,18.3025513 596.402667,19.4223267 C597.301642,21.4962769 597.904901,23.022168 598.212445,24 L598.212445,24 L602.044916,24 C601.067084,21.523877 600.179938,19.6076416 599.383478,18.2512939 C598.981305,17.5810059 598.551532,17.0408325 598.094159,16.6307739 C599.884222,16.4020874 601.220856,15.8086853 602.104059,14.8505676 C602.987262,13.89245 603.428864,12.6760742 603.428864,11.2014404 C603.428864,10.1684082 603.202148,9.28914795 602.748718,8.56365967 C602.295288,7.83817139 601.699915,7.33939819 600.962598,7.06734009 C600.225281,6.79528198 599.19422,6.65925293 597.869415,6.65925293 L597.869415,6.65925293 L590.168988,6.65925293 L586.537604,24 L590.109845,24 Z M594.048773,14.2177368 L592.156195,14.2177368 L593.126141,9.55726318 L597.053241,9.55726318 C598.102045,9.55726318 598.784161,9.65189209 599.099591,9.8411499 C599.612164,10.1565796 599.868451,10.6297241 599.868451,11.2605835 C599.868451,11.796814 599.691022,12.3093872 599.336163,12.7983032 C598.981305,13.2872192 598.490417,13.6460205 597.863501,13.874707 C597.236584,14.1033936 595.965009,14.2177368 594.048773,14.2177368 L594.048773,14.2177368 Z" id="THANKYOUTOOUR" fill="#005EB8" fill-rule="nonzero"></path>
        <path d="M466.707861,56.2859619 L468.230188,54.7047607 C467.731156,54.2842285 467.321838,53.902946 467.002234,53.5609131 C467.226518,53.3534505 467.469025,53.0660868 467.729755,52.698822 C467.990485,52.3315572 468.202153,51.9909261 468.364758,51.6769287 L468.364758,51.6769287 L466.623755,50.6340088 C466.225651,51.2620036 465.883618,51.7189819 465.597656,52.0049438 C465.423836,51.8199097 465.193945,51.5143229 464.907983,51.0881836 C464.43138,50.3929036 464.033276,49.776123 463.713672,49.2378418 C464.734163,48.7219889 465.467291,48.1542704 465.913055,47.5346863 C466.35882,46.9151021 466.581702,46.338973 466.581702,45.8062988 C466.581702,45.178304 466.322373,44.6302104 465.803717,44.1620178 C465.285061,43.6938253 464.582772,43.459729 463.696851,43.459729 C462.665145,43.459729 461.833893,43.7541016 461.203094,44.3428467 C460.572296,44.9315918 460.256897,45.6577108 460.256897,46.5212036 C460.256897,47.1099487 460.439128,47.7996216 460.803589,48.5902222 C460.057845,48.988326 459.519564,49.3247518 459.188745,49.5994995 C458.728963,49.9807821 458.35469,50.4391622 458.065924,50.9746399 C457.777159,51.5101176 457.632776,52.0890503 457.632776,52.711438 C457.632776,53.6926799 457.997237,54.5211283 458.72616,55.1967834 C459.455082,55.8724386 460.458752,56.2102661 461.73717,56.2102661 C462.443665,56.2102661 463.102498,56.1037313 463.713672,55.8906616 C464.324845,55.677592 464.832288,55.4112549 465.235999,55.0916504 C465.437854,55.3047201 465.685968,55.5318075 465.980341,55.7729126 C466.274713,56.0140177 466.51722,56.1850342 466.707861,56.2859619 L466.707861,56.2859619 Z M462.838965,47.5893555 C462.59786,47.0847168 462.477307,46.6529704 462.477307,46.2941162 C462.477307,45.9184408 462.589449,45.6142558 462.813733,45.3815613 C463.038017,45.1488668 463.318372,45.0325195 463.654797,45.0325195 C463.923938,45.0325195 464.135606,45.1068136 464.289801,45.2554016 C464.443996,45.4039897 464.521094,45.5932292 464.521094,45.8231201 C464.521094,46.0754395 464.425773,46.3249552 464.235132,46.5716675 C463.965991,46.9137004 463.500602,47.2529297 462.838965,47.5893555 Z M461.829687,54.2505859 C461.280192,54.2505859 460.840035,54.0851766 460.509216,53.7543579 C460.178398,53.4235392 460.012988,53.0002035 460.012988,52.4843506 C460.012988,51.576001 460.568091,50.8442749 461.678296,50.2891724 C462.306291,51.43302 463.043624,52.5207967 463.890295,53.5525024 C463.183801,54.0178914 462.496932,54.2505859 461.829687,54.2505859 Z M476.657654,56 L477.448254,52.2236206 L479.845288,50.1293701 L482.889941,56 L485.757971,56 L481.69563,48.5061157 L487.229834,43.6699951 L483.831934,43.6699951 L478.129517,48.9098267 L479.2229,43.6699951 L476.682886,43.6699951 L474.109229,56 L476.657654,56 Z M496.203992,56 L496.641345,53.9393921 L489.467065,53.9393921 L490.240845,50.5919556 L496.624524,50.5919556 L497.053467,48.5313477 L490.669788,48.5313477 L491.258533,45.730603 L497.860889,45.730603 L498.289832,43.6699951 L489.147461,43.6699951 L486.573804,56 L496.203992,56 Z M504.261389,56 L505.220203,51.43302 L510.872156,43.6699951 L507.92843,43.6699951 L506.187427,46.1679565 L505.018347,47.7996216 C504.743599,48.2089396 504.502494,48.5958293 504.295032,48.9602905 C504.171676,48.5902222 503.927767,47.9874593 503.563306,47.152002 L503.563306,47.152002 L502.032568,43.6699951 L499.332751,43.6699951 L502.730652,51.197522 L501.729785,56 L504.261389,56 Z M513.942041,56 L518.433325,46.9837891 L518.710876,56 L521.276123,56 L527.23927,43.6699951 L524.783362,43.6699951 L520.721021,52.2067993 L520.435059,43.6699951 L517.684778,43.6699951 L513.454224,52.2993164 L513.344885,43.6699951 L510.863745,43.6699951 L511.326331,56 L513.942041,56 Z M531.646448,56.2186768 C532.969722,56.2186768 534.155623,55.8906616 535.20415,55.2346313 C536.252677,54.5786011 537.082528,53.642216 537.693701,52.4254761 C538.304875,51.2087362 538.610461,49.949943 538.610461,48.6490967 C538.610461,47.0847168 538.140867,45.8287272 537.201678,44.8811279 C536.26249,43.9335286 535.03033,43.459729 533.5052,43.459729 C532.36696,43.459729 531.352075,43.6910217 530.460547,44.1536072 C529.569019,44.6161926 528.830284,45.2455892 528.244342,46.0417969 C527.6584,46.8380046 527.222449,47.7771932 526.936487,48.8593628 C526.71781,49.6667847 526.608472,50.4349569 526.608472,51.1638794 C526.608472,51.9488729 526.771077,52.7268575 527.096289,53.4978333 C527.421501,54.268809 527.9738,54.9150269 528.753186,55.4364868 C529.532572,55.9579468 530.496993,56.2186768 531.646448,56.2186768 Z M531.923999,54.0991943 C531.082935,54.0991943 530.404476,53.8132324 529.888623,53.2413086 C529.37277,52.6693848 529.114844,51.9600871 529.114844,51.1134155 C529.114844,49.7340698 529.503135,48.466866 530.279718,47.3118042 C531.056301,46.1567424 532.064176,45.5792114 533.303345,45.5792114 C534.110767,45.5792114 534.775208,45.8553609 535.296667,46.4076599 C535.818127,46.9599589 536.078857,47.7211222 536.078857,48.6911499 C536.078857,49.5602498 535.872797,50.4531799 535.460675,51.3699402 C535.048553,52.2867004 534.527094,52.9707662 533.896295,53.4221375 C533.265497,53.8735087 532.608065,54.0991943 531.923999,54.0991943 Z M541.798096,56 L542.866248,50.8947388 L543.900757,50.8947388 C544.500716,50.8947388 544.921248,50.9760417 545.162354,51.1386475 C545.55485,51.4133952 545.924919,51.9488729 546.272559,52.7450806 C546.911768,54.2197469 547.34071,55.3047201 547.559387,56 L547.559387,56 L550.284436,56 C549.589156,54.2393717 548.958358,52.8768473 548.392041,51.9124268 C548.106079,51.4358236 547.800492,51.0517375 547.475281,50.7601685 C548.748092,50.5975627 549.698494,50.1756287 550.326489,49.4943665 C550.954484,48.8131042 551.268481,47.9482096 551.268481,46.8996826 C551.268481,46.165153 551.107277,45.5399618 550.784869,45.0241089 C550.462461,44.508256 550.039126,44.1536072 549.514862,43.9601624 C548.990599,43.7667175 548.257471,43.6699951 547.315479,43.6699951 L547.315479,43.6699951 L541.840149,43.6699951 L539.258081,56 L541.798096,56 Z M544.59884,49.044397 L543.253137,49.044397 L543.94281,45.730603 L546.735144,45.730603 C547.480888,45.730603 547.965902,45.7978882 548.190186,45.9324585 C548.554647,46.1567424 548.736877,46.4931681 548.736877,46.9417358 C548.736877,47.3230184 548.610718,47.6874797 548.358398,48.0351196 C548.106079,48.3827596 547.757037,48.6378825 547.311273,48.8004883 C546.865509,48.9630941 545.961365,49.044397 544.59884,49.044397 L544.59884,49.044397 Z M554.170154,56 L554.960754,52.2236206 L557.357788,50.1293701 L560.402441,56 L563.270471,56 L559.20813,48.5061157 L564.742334,43.6699951 L561.344434,43.6699951 L555.642017,48.9098267 L556.7354,43.6699951 L554.195386,43.6699951 L551.621729,56 L554.170154,56 Z M573.716492,56 L574.153845,53.9393921 L566.979565,53.9393921 L567.753345,50.5919556 L574.137024,50.5919556 L574.565967,48.5313477 L568.182288,48.5313477 L568.771033,45.730603 L575.373389,45.730603 L575.802332,43.6699951 L566.659961,43.6699951 L564.086304,56 L573.716492,56 Z M578.165723,56 L579.233875,50.8947388 L580.268384,50.8947388 C580.868343,50.8947388 581.288875,50.9760417 581.52998,51.1386475 C581.922477,51.4133952 582.292546,51.9488729 582.640186,52.7450806 C583.279395,54.2197469 583.708337,55.3047201 583.927014,56 L583.927014,56 L586.652063,56 C585.956783,54.2393717 585.325985,52.8768473 584.759668,51.9124268 C584.473706,51.4358236 584.168119,51.0517375 583.842908,50.7601685 C585.115719,50.5975627 586.066121,50.1756287 586.694116,49.4943665 C587.322111,48.8131042 587.636108,47.9482096 587.636108,46.8996826 C587.636108,46.165153 587.474904,45.5399618 587.152496,45.0241089 C586.830088,44.508256 586.406753,44.1536072 585.882489,43.9601624 C585.358226,43.7667175 584.625098,43.6699951 583.683105,43.6699951 L583.683105,43.6699951 L578.207776,43.6699951 L575.625708,56 L578.165723,56 Z M580.966467,49.044397 L579.620764,49.044397 L580.310437,45.730603 L583.102771,45.730603 C583.848515,45.730603 584.333529,45.7978882 584.557812,45.9324585 C584.922274,46.1567424 585.104504,46.4931681 585.104504,46.9417358 C585.104504,47.3230184 584.978345,47.6874797 584.726025,48.0351196 C584.473706,48.3827596 584.124664,48.6378825 583.6789,48.8004883 C583.233136,48.9630941 582.328992,49.044397 580.966467,49.044397 L580.966467,49.044397 Z M593.246008,56.2102661 C594.782353,56.2102661 595.98087,55.8247782 596.841559,55.0538025 C597.702248,54.2828267 598.132593,53.3534505 598.132593,52.2656738 C598.132593,51.3853597 597.843827,50.6648478 597.266296,50.1041382 C596.879407,49.7228556 595.976664,49.2266276 594.558069,48.6154541 C593.616077,48.2061361 593.007707,47.883728 592.732959,47.64823 C592.458211,47.418339 592.320837,47.12677 592.320837,46.7735229 C592.320837,46.3978475 592.470827,46.0866536 592.770807,45.8399414 C593.070787,45.5932292 593.57122,45.469873 594.272107,45.469873 C594.984208,45.469873 595.522489,45.6268717 595.886951,45.9408691 C596.251412,46.2548665 596.464482,46.7062378 596.52616,47.2949829 L596.52616,47.2949829 L598.956836,47.1856445 C598.878337,46.0586182 598.442385,45.1558757 597.648981,44.477417 C596.855577,43.7989583 595.735559,43.459729 594.288928,43.459729 C592.864726,43.459729 591.776949,43.8017619 591.025598,44.4858276 C590.274247,45.1698934 589.898572,46.0305827 589.898572,47.0678955 C589.898572,47.6622477 590.024731,48.1809041 590.277051,48.6238647 C590.52937,49.0668254 590.875608,49.4270813 591.315765,49.7046326 C591.755922,49.9821838 592.454006,50.328422 593.410016,50.7433472 C594.366026,51.1582723 594.950566,51.458252 595.163635,51.6432861 C595.466418,51.8956055 595.61781,52.2039958 595.61781,52.568457 C595.61781,52.9889893 595.432776,53.3478434 595.062708,53.6450195 C594.692639,53.9421956 594.09268,54.0907837 593.26283,54.0907837 C592.264766,54.0907837 591.580701,53.8721069 591.210632,53.4347534 C590.980741,53.1656128 590.848975,52.6469564 590.815332,51.8787842 L590.815332,51.8787842 L588.401477,52.0049438 C588.379049,52.829187 588.527637,53.5581095 588.847241,54.1917114 C589.166846,54.8253133 589.714939,55.3201396 590.491522,55.6761902 C591.268105,56.0322408 592.186267,56.2102661 593.246008,56.2102661 Z" id="&amp;KEYWORKERS" fill="#005EB8" fill-rule="nonzero"></path>
        <g id="Group-2" transform="translate(363.000000, 31.000000)">
            <rect id="Rectangle-Copy" fill="#FFFFFF" x="0" y="0" width="84" height="36"></rect>
            <path d="M0,36 L84,36 L84,0 L0,0 L0,36 Z M33.7723101,3.47350596 L27.9741455,32.4502928 L18.8741654,32.4502928 L13.1523709,12.4004798 L13.0760008,12.4004798 L9.26942637,32.4502928 L2.36866778,32.4502928 L8.21456374,3.47350596 L17.3443759,3.47350596 L22.9528085,23.5677697 L23.0303719,23.5677697 L26.8715516,3.47350596 L33.7723101,3.47350596 Z M59.8002102,3.47350596 L54.1142143,32.4502928 L46.7862602,32.4502928 L49.2169787,20.0396529 L40.5501605,20.0396529 L38.119442,32.4502928 L30.7914879,32.4502928 L36.4762906,3.47350596 L43.805438,3.47350596 L41.6515612,14.5595146 L50.3147996,14.5595146 L52.4722562,3.47350596 L59.8002102,3.47350596 Z M80.8533114,4.26345869 L79.0860585,10.0331616 C77.6755974,9.32957031 75.7544109,8.7085303 73.0504304,8.7085303 C70.1519448,8.7085303 67.7975964,9.16065759 67.7975964,11.4886051 C67.7975964,15.5958513 78.4225928,14.0629366 78.4225928,22.8641784 C78.4225928,30.8741974 71.4036992,32.9519509 65.0530443,32.9519509 C62.2309288,32.9519509 58.9768446,32.2432795 56.5866977,31.4533267 L58.3121857,25.5578918 C59.7596386,26.5561278 62.6640907,27.2216186 65.0530443,27.2216186 C67.3298292,27.2216186 70.8929738,26.7631412 70.8929738,23.774783 C70.8929738,19.1226981 60.2691707,20.8677062 60.2691707,12.6938545 C60.2691707,5.21851408 66.4646987,2.97692796 72.4633349,2.97692796 C75.8367475,2.97692796 79.0096883,3.35285402 80.8533114,4.26345869 L80.8533114,4.26345869 Z" id="NHS-logo-for-A4-10mm---RGB-Blue-Copy" fill="#005EB8"></path>
        </g>
    </g>
</svg>