<?xml version="1.0" encoding="UTF-8"?>
<svg width="400px" height="81px" viewBox="0 0 400 81" version="1.1" xmlns="http://www.w3.org/2000/svg" xmlns:xlink="http://www.w3.org/1999/xlink">
    <!-- Generator: Sketch 63.1 (92452) - https://sketch.com -->
    <title>thankyounhs mobile</title>
    <desc>Created with Sketch.</desc>
    <g id="thankyounhs-mobile" stroke="none" stroke-width="1" fill="none" fill-rule="evenodd">
        <rect fill="#FFFFFF" x="0" y="0" width="400" height="81"></rect>
        <g id="rainbow-copy" transform="translate(236.000000, -23.000000)" fill-rule="nonzero">
            <path d="M107,0 C55.6375178,0 14,41.8090569 14,93.3831386 L14,140 C61.0282393,120.875134 44.4333196,127.587514 73.5199991,115.757738 L73.5199991,93.3831386 C73.5199991,74.8164693 88.5095057,59.7652097 107,59.7652097 C125.490492,59.7652097 140.479998,74.8164693 140.479998,93.3831386 L140.479998,107.017076 C151.524678,106.856457 183.881238,106.434366 200,106.232658 L200,93.3831386 C200.00592,68.6145684 190.209635,44.8587473 172.767468,27.3447229 C155.325302,9.83069863 131.666947,-0.00594390611 107,0 Z" id="Shape" fill="#E64C3C"></path>
            <path d="M154.095482,107.022598 L141.075348,107.209348 L141.075348,93.5765509 C141.075348,75.0114345 126.042736,59.9614337 107.499071,59.9614337 C88.9554055,59.9614337 73.9227942,75.0114345 73.9227942,93.5765509 L73.9227942,115.949279 L59,122 L59,93.5765509 C58.9919331,74.5913673 70.0368721,57.3429445 87.2721976,49.4250426 C104.507523,41.5071403 124.771314,44.3723439 139.14227,56.7592236 C153.513227,69.146103 159.354914,88.7822138 154.095482,107.022598 Z" id="Shape" fill="#955BA5"></path>
            <path d="M169.615852,106.731035 L154.151992,106.917933 C159.417817,88.6631807 153.56903,69.0116022 139.180605,56.6149654 C124.792181,44.2183284 104.50376,41.3508678 87.2474855,49.2750072 C69.9912108,57.1991462 58.9328469,74.4611558 58.940928,93.4612943 L58.940928,121.907133 L44,128 L44,93.4612943 C44.0322466,69.1796573 57.8890269,47.0391011 79.7052438,36.4109594 C101.521461,25.7828177 127.482784,28.5253062 146.600682,43.4776241 C165.71858,58.4299423 174.650493,82.9778384 169.615852,106.731035 L169.615852,106.731035 Z" id="Shape" fill="#3B97D3"></path>
            <path d="M186,93.4369111 L186,106.472379 L169.664524,106.696484 C174.703024,82.9614878 165.764264,58.4324008 146.631711,43.4915394 C127.499159,28.5506782 101.517934,25.810291 79.6849944,36.4302892 C57.8520545,47.0502875 43.9846523,69.1738791 43.952381,93.4369111 L43.952381,127.949152 L29,134 L29,93.4369111 C29,50.1174012 64.1456477,15 107.5,15 C150.854352,15 186,50.1174012 186,93.4369111 Z" id="Shape" fill="#F0C419"></path>
            <path d="M165.384347,89 C172.779535,89.0507836 179.46564,93.4337236 182.494559,100.21625 C184.337909,99.490544 186.300373,99.1191136 188.280026,99.12125 C197.259144,99.2506464 204.462808,106.619721 204.435318,115.6475 C211.38206,117.994102 216.045376,124.558994 215.998792,131.92625 C216.108717,141.23186 208.704217,148.870369 199.448103,149 L135.565505,149 C126.777339,148.767164 119.612882,141.841551 119.037028,133.022539 C118.461174,124.203527 124.663589,116.395786 133.346064,115.01 C135.361994,109.29542 140.699341,105.44309 146.729853,105.35 C148.113508,96.0357912 156.017305,89.1083945 165.384347,89 L165.384347,89 Z" id="Shape" fill="#ECF0F1"></path>
        </g>
        <path d="M10.0724854,26 L12.2171997,15.730603 L15.783313,15.730603 L16.2122559,13.6699951 L6.49796143,13.6699951 L6.06901855,15.730603 L9.6855957,15.730603 L7.5324707,26 L10.0724854,26 Z M17.8102783,26 L18.9625366,20.4910278 L23.7313721,20.4910278 L22.5791138,26 L25.1191284,26 L27.6927856,13.6699951 L25.1611816,13.6699951 L24.1603149,18.4304199 L19.3914795,18.4304199 L20.3839355,13.6699951 L17.8523315,13.6699951 L15.2702637,26 L17.8102783,26 Z M29.3749146,26 L30.855188,23.2749512 L35.7417725,23.2749512 L36.153894,26 L38.5593384,26 L36.557605,13.6699951 L33.7400391,13.6699951 L26.7676147,26 L29.3749146,26 Z M35.4305786,21.2227539 L31.7383057,21.2227539 L34.7156738,16.2604736 L35.4305786,21.2227539 Z M42.5375732,26 L44.270166,17.7155151 L47.6007812,26 L49.9641724,26 L52.5378296,13.6699951 L50.1828491,13.6699951 L48.458667,21.9208374 L45.1196411,13.6699951 L42.7478394,13.6699951 L40.1741821,26 L42.5375732,26 Z M55.0694336,26 L55.8600342,22.2236206 L58.2570679,20.1293701 L61.3017212,26 L64.169751,26 L60.1074097,18.5061157 L65.6416138,13.6699951 L62.2437134,13.6699951 L56.5412964,18.9098267 L57.6346802,13.6699951 L55.0946655,13.6699951 L52.5210083,26 L55.0694336,26 Z M75.9698853,26 L76.9286987,21.43302 L82.5806519,13.6699951 L79.6369263,13.6699951 L77.8959229,16.1679565 L76.7268433,17.7996216 C76.4520955,18.2089396 76.2109904,18.5958293 76.0035278,18.9602905 C75.8801717,18.5902222 75.636263,17.9874593 75.2718018,17.152002 L75.2718018,17.152002 L73.7410645,13.6699951 L71.0412476,13.6699951 L74.4391479,21.197522 L73.4382812,26 L75.9698853,26 Z M87.097168,26.2186768 C88.4204427,26.2186768 89.6063436,25.8906616 90.6548706,25.2346313 C91.7033976,24.5786011 92.5332479,23.642216 93.1444214,22.4254761 C93.7555949,21.2087362 94.0611816,19.949943 94.0611816,18.6490967 C94.0611816,17.0847168 93.5915873,15.8287272 92.6523987,14.8811279 C91.71321,13.9335286 90.4810506,13.459729 88.9559204,13.459729 C87.8176799,13.459729 86.8027954,13.6910217 85.9112671,14.1536072 C85.0197388,14.6161926 84.2810038,15.2455892 83.6950623,16.0417969 C83.1091207,16.8380046 82.6731689,17.7771932 82.387207,18.8593628 C82.1685303,19.6667847 82.0591919,20.4349569 82.0591919,21.1638794 C82.0591919,21.9488729 82.2217977,22.7268575 82.5470093,23.4978333 C82.8722209,24.268809 83.4245199,24.9150269 84.2039062,25.4364868 C84.9832926,25.9579468 85.9477132,26.2186768 87.097168,26.2186768 Z M87.3747192,24.0991943 C86.5336548,24.0991943 85.8551961,23.8132324 85.3393433,23.2413086 C84.8234904,22.6693848 84.565564,21.9600871 84.565564,21.1134155 C84.565564,19.7340698 84.9538554,18.466866 85.7304382,17.3118042 C86.5070211,16.1567424 87.5148966,15.5792114 88.7540649,15.5792114 C89.5614868,15.5792114 90.2259277,15.8553609 90.7473877,16.4076599 C91.2688477,16.9599589 91.5295776,17.7211222 91.5295776,18.6911499 C91.5295776,19.5602498 91.3235168,20.4531799 90.9113953,21.3699402 C90.4992737,22.2867004 89.9778137,22.9707662 89.3470154,23.4221375 C88.716217,23.8735087 88.058785,24.0991943 87.3747192,24.0991943 Z M99.9654541,26.2102661 C101.165373,26.2102661 102.157829,25.9747681 102.942822,25.503772 C103.727816,25.0327759 104.313757,24.4216024 104.700647,23.6702515 C105.087537,22.9189006 105.429569,21.8339274 105.726746,20.415332 L105.726746,20.415332 L107.131323,13.6699951 L104.599719,13.6699951 L103.186731,20.4069214 C102.962447,21.4946981 102.740967,22.2656738 102.52229,22.7198486 C102.303613,23.1740234 101.995223,23.5160563 101.597119,23.7459473 C101.199015,23.9758382 100.694377,24.0907837 100.083203,24.0907837 C99.4047445,24.0907837 98.8874898,23.9323832 98.5314392,23.6155823 C98.1753886,23.2987813 97.9973633,22.8964722 97.9973633,22.4086548 C97.9973633,22.2852987 98.0085775,22.1535319 98.0310059,22.0133545 L98.0310059,22.0133545 L98.3758423,20.3648682 L99.7720093,13.6699951 L97.2404053,13.6699951 L95.8778809,20.1630127 C95.7040609,21.0040771 95.6059367,21.5143229 95.5835083,21.69375 C95.5442586,21.9628906 95.5246338,22.2124064 95.5246338,22.4422974 C95.5246338,23.5468953 95.9059163,24.4510396 96.6684814,25.1547302 C97.4310465,25.8584208 98.5300374,26.2102661 99.9654541,26.2102661 Z M117.249329,26 L119.394043,15.730603 L122.960156,15.730603 L123.389099,13.6699951 L113.674805,13.6699951 L113.245862,15.730603 L116.862439,15.730603 L114.709314,26 L117.249329,26 Z M128.242041,26.2186768 C129.565316,26.2186768 130.751217,25.8906616 131.799744,25.2346313 C132.848271,24.5786011 133.678121,23.642216 134.289294,22.4254761 C134.900468,21.2087362 135.206055,19.949943 135.206055,18.6490967 C135.206055,17.0847168 134.73646,15.8287272 133.797272,14.8811279 C132.858083,13.9335286 131.625924,13.459729 130.100793,13.459729 C128.962553,13.459729 127.947668,13.6910217 127.05614,14.1536072 C126.164612,14.6161926 125.425877,15.2455892 124.839935,16.0417969 C124.253994,16.8380046 123.818042,17.7771932 123.53208,18.8593628 C123.313403,19.6667847 123.204065,20.4349569 123.204065,21.1638794 C123.204065,21.9488729 123.366671,22.7268575 123.691882,23.4978333 C124.017094,24.268809 124.569393,24.9150269 125.348779,25.4364868 C126.128166,25.9579468 127.092586,26.2186768 128.242041,26.2186768 Z M128.519592,24.0991943 C127.678528,24.0991943 127.000069,23.8132324 126.484216,23.2413086 C125.968363,22.6693848 125.710437,21.9600871 125.710437,21.1134155 C125.710437,19.7340698 126.098728,18.466866 126.875311,17.3118042 C127.651894,16.1567424 128.65977,15.5792114 129.898938,15.5792114 C130.70636,15.5792114 131.370801,15.8553609 131.892261,16.4076599 C132.413721,16.9599589 132.674451,17.7211222 132.674451,18.6911499 C132.674451,19.5602498 132.46839,20.4531799 132.056268,21.3699402 C131.644147,22.2867004 131.122687,22.9707662 130.491888,23.4221375 C129.86109,23.8735087 129.203658,24.0991943 128.519592,24.0991943 Z M146.425854,26.2186768 C147.749129,26.2186768 148.93503,25.8906616 149.983557,25.2346313 C151.032084,24.5786011 151.861934,23.642216 152.473108,22.4254761 C153.084281,21.2087362 153.389868,19.949943 153.389868,18.6490967 C153.389868,17.0847168 152.920274,15.8287272 151.981085,14.8811279 C151.041897,13.9335286 149.809737,13.459729 148.284607,13.459729 C147.146366,13.459729 146.131482,13.6910217 145.239954,14.1536072 C144.348425,14.6161926 143.60969,15.2455892 143.023749,16.0417969 C142.437807,16.8380046 142.001855,17.7771932 141.715894,18.8593628 C141.497217,19.6667847 141.387878,20.4349569 141.387878,21.1638794 C141.387878,21.9488729 141.550484,22.7268575 141.875696,23.4978333 C142.200907,24.268809 142.753206,24.9150269 143.532593,25.4364868 C144.311979,25.9579468 145.2764,26.2186768 146.425854,26.2186768 Z M146.703406,24.0991943 C145.862341,24.0991943 145.183883,23.8132324 144.66803,23.2413086 C144.152177,22.6693848 143.89425,21.9600871 143.89425,21.1134155 C143.89425,19.7340698 144.282542,18.466866 145.059125,17.3118042 C145.835708,16.1567424 146.843583,15.5792114 148.082751,15.5792114 C148.890173,15.5792114 149.554614,15.8553609 150.076074,16.4076599 C150.597534,16.9599589 150.858264,17.7211222 150.858264,18.6911499 C150.858264,19.5602498 150.652203,20.4531799 150.240082,21.3699402 C149.82796,22.2867004 149.3065,22.9707662 148.675702,23.4221375 C148.044904,23.8735087 147.387472,24.0991943 146.703406,24.0991943 Z M159.294141,26.2102661 C160.494059,26.2102661 161.486515,25.9747681 162.271509,25.503772 C163.056502,25.0327759 163.642444,24.4216024 164.029333,23.6702515 C164.416223,22.9189006 164.758256,21.8339274 165.055432,20.415332 L165.055432,20.415332 L166.46001,13.6699951 L163.928406,13.6699951 L162.515417,20.4069214 C162.291134,21.4946981 162.069653,22.2656738 161.850977,22.7198486 C161.6323,23.1740234 161.32391,23.5160563 160.925806,23.7459473 C160.527702,23.9758382 160.023063,24.0907837 159.41189,24.0907837 C158.733431,24.0907837 158.216176,23.9323832 157.860126,23.6155823 C157.504075,23.2987813 157.32605,22.8964722 157.32605,22.4086548 C157.32605,22.2852987 157.337264,22.1535319 157.359692,22.0133545 L157.359692,22.0133545 L157.704529,20.3648682 L159.100696,13.6699951 L156.569092,13.6699951 L155.206567,20.1630127 C155.032747,21.0040771 154.934623,21.5143229 154.912195,21.69375 C154.872945,21.9628906 154.85332,22.2124064 154.85332,22.4422974 C154.85332,23.5468953 155.234603,24.4510396 155.997168,25.1547302 C156.759733,25.8584208 157.858724,26.2102661 159.294141,26.2102661 Z M169.016846,26 L170.084998,20.8947388 L171.119507,20.8947388 C171.719466,20.8947388 172.139998,20.9760417 172.381104,21.1386475 C172.7736,21.4133952 173.143669,21.9488729 173.491309,22.7450806 C174.130518,24.2197469 174.55946,25.3047201 174.778137,26 L174.778137,26 L177.503186,26 C176.807906,24.2393717 176.177108,22.8768473 175.610791,21.9124268 C175.324829,21.4358236 175.019242,21.0517375 174.694031,20.7601685 C175.966842,20.5975627 176.917244,20.1756287 177.545239,19.4943665 C178.173234,18.8131042 178.487231,17.9482096 178.487231,16.8996826 C178.487231,16.165153 178.326027,15.5399618 178.003619,15.0241089 C177.681211,14.508256 177.257876,14.1536072 176.733612,13.9601624 C176.209349,13.7667175 175.476221,13.6699951 174.534229,13.6699951 L174.534229,13.6699951 L169.058899,13.6699951 L166.476831,26 L169.016846,26 Z M171.81759,19.044397 L170.471887,19.044397 L171.16156,15.730603 L173.953894,15.730603 C174.699638,15.730603 175.184652,15.7978882 175.408936,15.9324585 C175.773397,16.1567424 175.955627,16.4931681 175.955627,16.9417358 C175.955627,17.3230184 175.829468,17.6874797 175.577148,18.0351196 C175.324829,18.3827596 174.975787,18.6378825 174.530023,18.8004883 C174.084259,18.9630941 173.180115,19.044397 171.81759,19.044397 L171.81759,19.044397 Z M103.290552,66.2859619 L104.812878,64.7047607 C104.313847,64.2842285 103.904529,63.902946 103.584924,63.5609131 C103.809208,63.3534505 104.051715,63.0660868 104.312445,62.698822 C104.573175,62.3315572 104.784843,61.9909261 104.947449,61.6769287 L104.947449,61.6769287 L103.206445,60.6340088 C102.808341,61.2620036 102.466309,61.7189819 102.180347,62.0049438 C102.006527,61.8199097 101.776636,61.5143229 101.490674,61.0881836 C101.014071,60.3929036 100.615967,59.776123 100.296362,59.2378418 C101.316854,58.7219889 102.049982,58.1542704 102.495746,57.5346863 C102.94151,56.9151021 103.164392,56.338973 103.164392,55.8062988 C103.164392,55.178304 102.905064,54.6302104 102.386407,54.1620178 C101.867751,53.6938253 101.165462,53.459729 100.279541,53.459729 C99.2478353,53.459729 98.4165833,53.7541016 97.7857849,54.3428467 C97.1549866,54.9315918 96.8395874,55.6577108 96.8395874,56.5212036 C96.8395874,57.1099487 97.021818,57.7996216 97.3862793,58.5902222 C96.6405355,58.988326 96.1022542,59.3247518 95.7714355,59.5994995 C95.3116536,59.9807821 94.93738,60.4391622 94.6486145,60.9746399 C94.359849,61.5101176 94.2154663,62.0890503 94.2154663,62.711438 C94.2154663,63.6926799 94.5799276,64.5211283 95.3088501,65.1967834 C96.0377726,65.8724386 97.0414429,66.2102661 98.3198608,66.2102661 C99.026355,66.2102661 99.6851888,66.1037313 100.296362,65.8906616 C100.907536,65.677592 101.414978,65.4112549 101.818689,65.0916504 C102.020544,65.3047201 102.268658,65.5318075 102.563031,65.7729126 C102.857404,66.0140177 103.09991,66.1850342 103.290552,66.2859619 L103.290552,66.2859619 Z M99.4216553,57.5893555 C99.1805501,57.0847168 99.0599976,56.6529704 99.0599976,56.2941162 C99.0599976,55.9184408 99.1721395,55.6142558 99.3964233,55.3815613 C99.6207072,55.1488668 99.901062,55.0325195 100.237488,55.0325195 C100.506628,55.0325195 100.718296,55.1068136 100.872491,55.2554016 C101.026687,55.4039897 101.103784,55.5932292 101.103784,55.8231201 C101.103784,56.0754395 101.008464,56.3249552 100.817822,56.5716675 C100.548682,56.9137004 100.083293,57.2529297 99.4216553,57.5893555 Z M98.4123779,64.2505859 C97.8628825,64.2505859 97.4227254,64.0851766 97.0919067,63.7543579 C96.7610881,63.4235392 96.5956787,63.0002035 96.5956787,62.4843506 C96.5956787,61.576001 97.1507812,60.8442749 98.2609863,60.2891724 C98.8889811,61.43302 99.6263143,62.5207967 100.472986,63.5525024 C99.7664917,64.0178914 99.0796224,64.2505859 98.4123779,64.2505859 Z M113.240344,66 L114.030945,62.2236206 L116.427979,60.1293701 L119.472632,66 L122.340662,66 L118.27832,58.5061157 L123.812524,53.6699951 L120.414624,53.6699951 L114.712207,58.9098267 L115.805591,53.6699951 L113.265576,53.6699951 L110.691919,66 L113.240344,66 Z M132.786682,66 L133.224036,63.9393921 L126.049756,63.9393921 L126.823535,60.5919556 L133.207214,60.5919556 L133.636157,58.5313477 L127.252478,58.5313477 L127.841223,55.730603 L134.443579,55.730603 L134.872522,53.6699951 L125.730151,53.6699951 L123.156494,66 L132.786682,66 Z M140.84408,66 L141.802893,61.43302 L147.454846,53.6699951 L144.511121,53.6699951 L142.770117,56.1679565 L141.601038,57.7996216 C141.32629,58.2089396 141.085185,58.5958293 140.877722,58.9602905 C140.754366,58.5902222 140.510457,57.9874593 140.145996,57.152002 L140.145996,57.152002 L138.615259,53.6699951 L135.915442,53.6699951 L139.313342,61.197522 L138.312476,66 L140.84408,66 Z M150.524731,66 L155.016016,56.9837891 L155.293567,66 L157.858813,66 L163.82196,53.6699951 L161.366052,53.6699951 L157.303711,62.2067993 L157.017749,53.6699951 L154.267468,53.6699951 L150.036914,62.2993164 L149.927576,53.6699951 L147.446436,53.6699951 L147.909021,66 L150.524731,66 Z M168.229138,66.2186768 C169.552413,66.2186768 170.738314,65.8906616 171.786841,65.2346313 C172.835368,64.5786011 173.665218,63.642216 174.276392,62.4254761 C174.887565,61.2087362 175.193152,59.949943 175.193152,58.6490967 C175.193152,57.0847168 174.723558,55.8287272 173.784369,54.8811279 C172.84518,53.9335286 171.613021,53.459729 170.087891,53.459729 C168.94965,53.459729 167.934766,53.6910217 167.043237,54.1536072 C166.151709,54.6161926 165.412974,55.2455892 164.827032,56.0417969 C164.241091,56.8380046 163.805139,57.7771932 163.519177,58.8593628 C163.3005,59.6667847 163.191162,60.4349569 163.191162,61.1638794 C163.191162,61.9488729 163.353768,62.7268575 163.678979,63.4978333 C164.004191,64.268809 164.55649,64.9150269 165.335876,65.4364868 C166.115263,65.9579468 167.079683,66.2186768 168.229138,66.2186768 Z M168.506689,64.0991943 C167.665625,64.0991943 166.987166,63.8132324 166.471313,63.2413086 C165.955461,62.6693848 165.697534,61.9600871 165.697534,61.1134155 C165.697534,59.7340698 166.085826,58.466866 166.862408,57.3118042 C167.638991,56.1567424 168.646867,55.5792114 169.886035,55.5792114 C170.693457,55.5792114 171.357898,55.8553609 171.879358,56.4076599 C172.400818,56.9599589 172.661548,57.7211222 172.661548,58.6911499 C172.661548,59.5602498 172.455487,60.4531799 172.043365,61.3699402 C171.631244,62.2867004 171.109784,62.9707662 170.478986,63.4221375 C169.848187,63.8735087 169.190755,64.0991943 168.506689,64.0991943 Z M178.380786,66 L179.448938,60.8947388 L180.483447,60.8947388 C181.083407,60.8947388 181.503939,60.9760417 181.745044,61.1386475 C182.137541,61.4133952 182.507609,61.9488729 182.855249,62.7450806 C183.494458,64.2197469 183.923401,65.3047201 184.142078,66 L184.142078,66 L186.867126,66 C186.171847,64.2393717 185.541048,62.8768473 184.974731,61.9124268 C184.68877,61.4358236 184.383183,61.0517375 184.057971,60.7601685 C185.330782,60.5975627 186.281185,60.1756287 186.90918,59.4943665 C187.537174,58.8131042 187.851172,57.9482096 187.851172,56.8996826 C187.851172,56.165153 187.689968,55.5399618 187.36756,55.0241089 C187.045152,54.508256 186.621816,54.1536072 186.097552,53.9601624 C185.573289,53.7667175 184.840161,53.6699951 183.898169,53.6699951 L183.898169,53.6699951 L178.422839,53.6699951 L175.840771,66 L178.380786,66 Z M181.181531,59.044397 L179.835828,59.044397 L180.5255,55.730603 L183.317834,55.730603 C184.063578,55.730603 184.548592,55.7978882 184.772876,55.9324585 C185.137337,56.1567424 185.319568,56.4931681 185.319568,56.9417358 C185.319568,57.3230184 185.193408,57.6874797 184.941089,58.0351196 C184.68877,58.3827596 184.339728,58.6378825 183.893964,58.8004883 C183.448199,58.9630941 182.544055,59.044397 181.181531,59.044397 L181.181531,59.044397 Z M190.752844,66 L191.543445,62.2236206 L193.940479,60.1293701 L196.985132,66 L199.853162,66 L195.79082,58.5061157 L201.325024,53.6699951 L197.927124,53.6699951 L192.224707,58.9098267 L193.318091,53.6699951 L190.778076,53.6699951 L188.204419,66 L190.752844,66 Z M210.299182,66 L210.736536,63.9393921 L203.562256,63.9393921 L204.336035,60.5919556 L210.719714,60.5919556 L211.148657,58.5313477 L204.764978,58.5313477 L205.353723,55.730603 L211.956079,55.730603 L212.385022,53.6699951 L203.242651,53.6699951 L200.668994,66 L210.299182,66 Z M214.748413,66 L215.816565,60.8947388 L216.851074,60.8947388 C217.451034,60.8947388 217.871566,60.9760417 218.112671,61.1386475 C218.505168,61.4133952 218.875236,61.9488729 219.222876,62.7450806 C219.862085,64.2197469 220.291028,65.3047201 220.509705,66 L220.509705,66 L223.234753,66 C222.539473,64.2393717 221.908675,62.8768473 221.342358,61.9124268 C221.056396,61.4358236 220.75081,61.0517375 220.425598,60.7601685 C221.698409,60.5975627 222.648812,60.1756287 223.276807,59.4943665 C223.904801,58.8131042 224.218799,57.9482096 224.218799,56.8996826 C224.218799,56.165153 224.057595,55.5399618 223.735187,55.0241089 C223.412779,54.508256 222.989443,54.1536072 222.465179,53.9601624 C221.940916,53.7667175 221.207788,53.6699951 220.265796,53.6699951 L220.265796,53.6699951 L214.790466,53.6699951 L212.208398,66 L214.748413,66 Z M217.549158,59.044397 L216.203455,59.044397 L216.893127,55.730603 L219.685461,55.730603 C220.431205,55.730603 220.916219,55.7978882 221.140503,55.9324585 C221.504964,56.1567424 221.687195,56.4931681 221.687195,56.9417358 C221.687195,57.3230184 221.561035,57.6874797 221.308716,58.0351196 C221.056396,58.3827596 220.707355,58.6378825 220.261591,58.8004883 C219.815826,58.9630941 218.911682,59.044397 217.549158,59.044397 L217.549158,59.044397 Z M229.828699,66.2102661 C231.365043,66.2102661 232.56356,65.8247782 233.424249,65.0538025 C234.284939,64.2828267 234.715283,63.3534505 234.715283,62.2656738 C234.715283,61.3853597 234.426518,60.6648478 233.848987,60.1041382 C233.462097,59.7228556 232.559355,59.2266276 231.140759,58.6154541 C230.198767,58.2061361 229.590397,57.883728 229.315649,57.64823 C229.040902,57.418339 228.903528,57.12677 228.903528,56.7735229 C228.903528,56.3978475 229.053518,56.0866536 229.353497,55.8399414 C229.653477,55.5932292 230.15391,55.469873 230.854797,55.469873 C231.566899,55.469873 232.10518,55.6268717 232.469641,55.9408691 C232.834102,56.2548665 233.047172,56.7062378 233.10885,57.2949829 L233.10885,57.2949829 L235.539526,57.1856445 C235.461027,56.0586182 235.025075,55.1558757 234.231671,54.477417 C233.438267,53.7989583 232.31825,53.459729 230.871619,53.459729 C229.447416,53.459729 228.359639,53.8017619 227.608289,54.4858276 C226.856938,55.1698934 226.481262,56.0305827 226.481262,57.0678955 C226.481262,57.6622477 226.607422,58.1809041 226.859741,58.6238647 C227.112061,59.0668254 227.458299,59.4270813 227.898456,59.7046326 C228.338613,59.9821838 229.036696,60.328422 229.992706,60.7433472 C230.948716,61.1582723 231.533256,61.458252 231.746326,61.6432861 C232.049109,61.8956055 232.2005,62.2039958 232.2005,62.568457 C232.2005,62.9889893 232.015466,63.3478434 231.645398,63.6450195 C231.27533,63.9421956 230.67537,64.0907837 229.84552,64.0907837 C228.847457,64.0907837 228.163391,63.8721069 227.793323,63.4347534 C227.563432,63.1656128 227.431665,62.6469564 227.398022,61.8787842 L227.398022,61.8787842 L224.984167,62.0049438 C224.961739,62.829187 225.110327,63.5581095 225.429932,64.1917114 C225.749536,64.8253133 226.29763,65.3201396 227.074213,65.6761902 C227.850795,66.0322408 228.768958,66.2102661 229.828699,66.2102661 Z" id="THANKYOUTOOUR&amp;KEYWORKERS" fill="#005EB8" fill-rule="nonzero"></path>
        <rect id="Rectangle-Copy" fill="#FFFFFF" x="6" y="32" width="84" height="36"></rect>
        <path d="M6,68 L90,68 L90,32 L6,32 L6,68 Z M39.7723101,35.473506 L33.9741455,64.4502928 L24.8741654,64.4502928 L19.1523709,44.4004798 L19.0760008,44.4004798 L15.2694264,64.4502928 L8.36866778,64.4502928 L14.2145637,35.473506 L23.3443759,35.473506 L28.9528085,55.5677697 L29.0303719,55.5677697 L32.8715516,35.473506 L39.7723101,35.473506 Z M65.8002102,35.473506 L60.1142143,64.4502928 L52.7862602,64.4502928 L55.2169787,52.0396529 L46.5501605,52.0396529 L44.119442,64.4502928 L36.7914879,64.4502928 L42.4762906,35.473506 L49.805438,35.473506 L47.6515612,46.5595146 L56.3147996,46.5595146 L58.4722562,35.473506 L65.8002102,35.473506 Z M86.8533114,36.2634587 L85.0860585,42.0331616 C83.6755974,41.3295703 81.7544109,40.7085303 79.0504304,40.7085303 C76.1519448,40.7085303 73.7975964,41.1606576 73.7975964,43.4886051 C73.7975964,47.5958513 84.4225928,46.0629366 84.4225928,54.8641784 C84.4225928,62.8741974 77.4036992,64.9519509 71.0530443,64.9519509 C68.2309288,64.9519509 64.9768446,64.2432795 62.5866977,63.4533267 L64.3121857,57.5578918 C65.7596386,58.5561278 68.6640907,59.2216186 71.0530443,59.2216186 C73.3298292,59.2216186 76.8929738,58.7631412 76.8929738,55.774783 C76.8929738,51.1226981 66.2691707,52.8677062 66.2691707,44.6938545 C66.2691707,37.2185141 72.4646987,34.976928 78.4633349,34.976928 C81.8367475,34.976928 85.0096883,35.352854 86.8533114,36.2634587 L86.8533114,36.2634587 Z" id="NHS-logo-for-A4-10mm---RGB-Blue-Copy" fill="#005EB8"></path>
    </g>
</svg>